<?xml version="1.0" encoding="UTF-8" standalone="no"?>
<svg
   xmlns:dc="http://purl.org/dc/elements/1.1/"
   xmlns:cc="http://creativecommons.org/ns#"
   xmlns:rdf="http://www.w3.org/1999/02/22-rdf-syntax-ns#"
   xmlns:svg="http://www.w3.org/2000/svg"
   xmlns="http://www.w3.org/2000/svg"
   id="svg8"
   version="1.1"
   viewBox="0 0 220 220"
   height="220mm"
   width="220mm">
  <defs
     id="defs2" />
  <metadata
     id="metadata5">
    <rdf:RDF>
      <cc:Work
         rdf:about="">
        <dc:format>image/svg+xml</dc:format>
        <dc:type
           rdf:resource="http://purl.org/dc/dcmitype/StillImage" />
        <dc:title></dc:title>
      </cc:Work>
    </rdf:RDF>
  </metadata>
  <g
     transform="translate(0,-77)"
     id="layer1">
    <g
       id="layer1-0"
       transform="matrix(0.26458333,0,0,0.26458333,171.062,204.43934)">
      <g
         style="stroke:#000000;stroke-width:5"
         id="g4253"
         transform="matrix(0.57741,0,0,0.57741,-2928.1,-925.9)">
        <path
           style="fill:#b3b3b3"
           id="path3024-71-1"
           d="m 5009.9,1132.3 -260.81,150.59 v 301.19 l 260.81,-150.59 z m -30.688,35.438 v 248.03 l -214.78,124.03 v -248.03 z" />
        <path
           style="fill:#e6e6e6"
           id="path2986-1-7"
           d="m 5101.9,1026 -398.91,230.31 v 460.62 l 398.91,-230.31 z m -30.688,53.125 v 389.78 l -337.53,194.88 v -389.75 z" />
        <path
           style="fill:#cccccc"
           id="path3002-7-4"
           d="m 5055.9,1088 -30.688,17.719 -291.5,168.31 v 372.03 l 322.19,-186.03 v -372.03 z m -30.688,35.438 v 318.91 l -276.16,159.44 v -318.91 z" />
        <path
           style="fill:none"
           id="path3019-3-0"
           d="m 4963.8,1176.6 15.343,-8.8583" />
        <path
           style="fill:#999999"
           id="path3024-7-2-9"
           d="m 4963.8,1176.6 -199.46,115.16 v 230.32 l 199.46,-115.16 z m -30.688,35.438 v 177.16 l -153.43,88.593 v -177.16 z" />
        <path
           style="fill:#808080"
           id="path3024-7-9-85-4"
           d="m 4917.8,1220.9 -138.09,79.724 v 159.45 l 138.09,-79.724 z m -30.688,35.438 v 106.29 l -92.056,53.162 V 1309.5 Z" />
        <path
           style="fill:#666666"
           id="path3024-7-9-8-1-8"
           d="m 4871.8,1265.2 -76.716,44.289 v 88.585 l 76.716,-44.289 z m -30.688,35.438 v 35.429 l -30.685,17.727 v -35.429 z" />
        <path
           style="fill:#4d4d4d"
           id="path3218-2-8"
           d="m 4810.4,1318.3 v 17.717 l 15.343,-8.8583 v -17.716 z" />
        <path
           style="fill:#ececec"
           id="path3244-9-2"
           d="m 4396.2,1132.3 260.81,150.59 v 301.19 L 4396.2,1433.49 Z m 30.688,35.438 v 248.03 l 214.78,124.03 v -248.03 l -214.9,-124 z" />
        <path
           style="fill:#f9f9f9"
           id="path3246-5-4"
           d="m 4304.1,1026 398.91,230.31 v 460.62 L 4304.1,1486.62 Z m 30.688,53.125 v 389.78 l 337.53,194.88 v -389.75 z" />
        <path
           style="fill:#f2f2f2"
           id="path3252-1-5"
           d="m 4350.1,1088 30.688,17.719 291.5,168.31 v 372.03 l -322.19,-186.03 v -372.03 z m 30.688,35.438 v 318.91 l 276.16,159.44 v -318.91 z" />
        <path
           style="fill:none"
           id="path3260-4-5"
           d="m 4442.2,1176.6 -15.343,-8.8583" />
        <path
           style="fill:#cccccc"
           id="path3264-1-1"
           d="m 4442.2,1176.6 199.46,115.16 v 230.32 L 4442.2,1406.92 Z m 30.688,35.438 v 177.16 l 153.43,88.593 v -177.16 z" />
        <path
           style="fill:#808080"
           id="path3270-7-7"
           d="m 4488.2,1220.9 138.09,79.724 v 159.45 L 4488.2,1380.35 Z m 30.688,35.438 v 106.29 l 92.056,53.162 V 1309.5 Z" />
        <path
           style="fill:#666666"
           id="path3276-7-1"
           d="m 4534.2,1265.2 76.716,44.289 v 88.585 l -76.716,-44.289 z m 30.688,35.438 v 35.429 l 30.685,17.727 v -35.429 z" />
        <path
           style="fill:#333333"
           id="path3282-3-1"
           d="m 4595.6,1318.3 v 17.717 l -15.343,-8.8583 v -17.716 z" />
        <path
           style="fill:#ececec"
           id="path3286-9-5"
           d="m 4442.2,1052.6 260.82,150.57 260.84,-150.59 -260.82,-150.57 z m 46.034,8.8574 214.8,-124.02 214.8,123.99 -214.8,124.02 z" />
        <path
           style="fill:#f9f9f9"
           id="path3288-8-2"
           d="M 4304.1,1026 4703.01,1256.31 5101.92,1026 4703.01,795.69 Z m 61.351,0.014 337.56,-194.89 337.53,194.87 -337.53,194.88 z" />
        <path
           style="fill:#f2f2f2"
           id="path3294-0-7"
           d="m 4380.8,1034.8 30.689,17.717 291.51,168.29 291.5,-168.3 30.69,-17.719 -322.2,-186.01 -322.19,186.02 z m 46.034,8.8574 276.18,-159.45 276.16,159.44 -276.18,159.45 z" />
        <path
           style="fill:none"
           id="path3302-0-6"
           d="m 4503.5,1070.3 -15.343,-8.8583" />
        <path
           style="fill:#cccccc"
           id="path3306-4-1"
           d="m 4503.5,1070.3 199.46,115.16 199.46,-115.16 -199.46,-115.16 z m 46.034,8.8574 153.42,-88.582 153.44,88.577 -153.42,88.582 z" />
        <path
           style="fill:#808080"
           id="path3312-5-4"
           d="m 4564.9,1088 138.09,79.724 138.09,-79.724 -138.09,-79.724 z m 46.034,8.8574 92.052,-53.146 92.067,53.141 -92.052,53.146 z" />
        <path
           style="fill:#666666"
           id="path3318-0-2"
           d="m 4626.3,1105.7 76.714,44.294 76.716,-44.294 -76.714,-44.294 z m 46.034,8.8574 30.681,-17.716 30.694,17.711 -30.681,17.716 z" />
        <path
           style="fill:#333333"
           id="path3324-1-3"
           d="m 4703,1132.3 15.343,-8.8583 -15.343,-8.8582 -15.343,8.8583 z" />
      </g>
    </g>
    <flowRoot
       transform="scale(0.26458333)"
       style="font-style:normal;font-weight:normal;font-size:40px;line-height:1.25;font-family:sans-serif;letter-spacing:0px;word-spacing:0px;fill:#000000;fill-opacity:1;stroke:none"
       id="flowRoot3805"
       xml:space="preserve"><flowRegion
         id="flowRegion3807"><rect
           y="608.23395"
           x="180"
           height="242.85715"
           width="534.28571"
           id="rect3809" /></flowRegion><flowPara
         id="flowPara3811"></flowPara></flowRoot>    <text
       id="text3819"
       y="188.8988"
       x="130.0238"
       style="font-style:normal;font-weight:normal;font-size:10.58333302px;line-height:1.25;font-family:sans-serif;letter-spacing:0px;word-spacing:0px;fill:#000000;fill-opacity:1;stroke:none;stroke-width:0.26458332"
       xml:space="preserve"><tspan
         style="stroke-width:0.26458332"
         y="198.26257"
         x="130.0238"
         id="tspan3817" /></text>
    <text
       id="text3823"
       y="104.0314"
       x="395.02435"
       style="font-style:normal;font-weight:normal;font-size:10.58333302px;line-height:1.25;font-family:sans-serif;letter-spacing:0px;word-spacing:0px;fill:#000000;fill-opacity:1;stroke:none;stroke-width:0.26458332"
       xml:space="preserve"><tspan
         style="stroke-width:0.26458332"
         y="113.39517"
         x="395.02435"
         id="tspan3821" /></text>
    <flowRoot
       transform="scale(0.26458333)"
       style="font-style:normal;font-weight:normal;font-size:40px;line-height:1.25;font-family:sans-serif;letter-spacing:0px;word-spacing:0px;fill:#000000;fill-opacity:1;stroke:none"
       id="flowRoot3825"
       xml:space="preserve"><flowRegion
         id="flowRegion3827"><rect
           y="667.95105"
           x="292.94424"
           height="40.406101"
           width="202.0305"
           id="rect3829" /></flowRegion><flowPara
         id="flowPara3831"></flowPara></flowRoot>    <text
       id="text3835"
       y="159.08891"
       x="158.7581"
       style="font-style:normal;font-weight:normal;font-size:10.58333302px;line-height:1.25;font-family:sans-serif;letter-spacing:0px;word-spacing:0px;fill:#000000;fill-opacity:1;stroke:none;stroke-width:0.26458332"
       xml:space="preserve"><tspan
         style="stroke-width:0.26458332"
         y="168.45268"
         x="158.7581"
         id="tspan3833"></tspan><tspan
         id="tspan3837"
         style="stroke-width:0.26458332"
         y="181.68185"
         x="158.7581" /></text>
  </g>
  <g
     transform="translate(0,-77)"
     id="layer2">
    <text
       transform="scale(0.67141734,1.4893866)"
       id="text3815"
       y="187.22556"
       x="23.864122"
       style="font-style:normal;font-weight:normal;font-size:36.54649734px;line-height:1.25;font-family:sans-serif;letter-spacing:0px;word-spacing:0px;fill:#000000;fill-opacity:1;stroke:none;stroke-width:0.68524677"
       xml:space="preserve"><tspan
         style="font-style:normal;font-variant:normal;font-weight:normal;font-stretch:normal;font-size:50.79999924px;font-family:'Ink Free';-inkscape-font-specification:'Ink Free';stroke-width:0.68524677"
         y="187.22556"
         x="23.864122"
         id="tspan3813">Novel Theory</tspan></text>
    <flowRoot
       transform="scale(0.26458333)"
       style="font-style:normal;font-weight:normal;font-size:40px;line-height:1.25;font-family:sans-serif;letter-spacing:0px;word-spacing:0px;fill:#000000;fill-opacity:1;stroke:none"
       id="flowRoot3844"
       xml:space="preserve"><flowRegion
         id="flowRegion3846"><rect
           y="467.94083"
           x="82.832512"
           height="442.44681"
           width="791.95959"
           id="rect3848" /></flowRegion><flowPara
         id="flowPara3850"></flowPara></flowRoot>  </g>
</svg>
